<svg width="806" height="509" viewBox="0 0 806 509" fill="none" xmlns="http://www.w3.org/2000/svg">
<path d="M498.426 379.863L417.718 375.75L387.312 401.046L475.909 405.798L498.426 379.863Z" fill="#EAE4EC"/>
<path d="M542.227 241.88L709.832 244.775L805.997 166.52L654.85 163.516L542.227 241.88Z" fill="#EAE4EC"/>
<path d="M709.833 244.778L542.228 241.883L541.628 242.093L541.148 254.731L709.833 259.053L804.699 183.354L805.999 166.523L709.833 244.778Z" fill="#EAE4EC"/>
<path d="M769.925 392.073L683.508 495.484L769.925 392.073L556.477 379.395L454.902 481.678H454.842V494.585L683.508 509L770.325 403.822V392.252L769.925 392.073Z" fill="#EAE4EC"/>
<path d="M354.987 348.846L130.331 345.621L0.249963 444.031L0 455.79L232.485 466.442L233.185 466.472L353.637 363.45L354.997 348.855L354.987 348.846ZM232.485 453.564L304.894 391.671L232.495 453.564H232.485Z" fill="#EAE4EC"/>
<path d="M536.252 63.8164L397.392 67.2505L316.145 116.525L460.093 113.78L536.252 63.8164Z" fill="#E6E6E6"/>
<path d="M316.143 116.526L315.543 116.756L316.003 125.701L460.091 123.964V113.781L316.143 116.526Z" fill="#CCCCCC"/>
<path d="M536.25 63.8164L460.092 113.78V123.962L536.39 72.8108V63.8563L536.25 63.8164Z" fill="#999999"/>
<path d="M537.471 132.941L398.602 136.365L317.354 185.65L316.754 185.87L317.224 194.814L461.302 193.087L537.601 141.936V132.981L537.471 132.941Z" fill="#EAE4EC"/>
<path d="M678.59 453.156L449.984 439.349L551.559 337.066L765.007 349.744L678.59 453.156Z" fill="#E6E6E6"/>
<path d="M449.984 439.352H449.924V452.259L678.59 466.674V453.158L449.984 439.352Z" fill="#CCCCCC"/>
<path d="M765.007 349.746L678.59 453.157V466.674L765.407 361.496V349.936L765.007 349.746Z" fill="#999999"/>
<path d="M130.331 250.836L0.25 349.246L232.475 358.799L354.987 254.07L130.331 250.836Z" fill="#E6E6E6"/>
<path d="M232.475 358.8L0.249963 349.246L0 361.006L232.485 371.657V358.79L232.475 358.8Z" fill="#CCCCCC"/>
<path d="M354.986 254.07L232.484 358.789V371.657L233.174 371.687L353.626 268.665L354.986 254.07Z" fill="#999999"/>
<path d="M557.076 330.606L326.74 322.111V171.552L557.076 168.727V330.606Z" fill="#DBBAD6"/>
<path d="M544.758 318.927L339.059 311.281V182.394L544.758 179.559V318.927Z" fill="#EAE4EC"/>
<path d="M494.244 328.173L493.934 379.864L473.367 399.839V391.464L490.465 374.633L490.725 327.934" fill="#716284"/>
<path d="M490.466 374.632L409.758 370.52L387.281 387.84L473.368 391.463L490.466 374.632Z" fill="#DBBAD6"/>
<path d="M473.368 391.46L387.371 387.836V395.972L473.368 399.835V391.46Z" fill="#B4A3B7"/>
<path d="M490.468 374.631L490.728 327.932L409.76 325.477V370.519L490.468 374.631Z" fill="#B4A3B7"/>
<path d="M782.28 140.725L631.133 137.73L518.51 216.085L686.115 218.98L782.28 140.725Z" fill="#E6E6E6"/>
<path d="M518.511 216.082L517.902 216.292L517.432 228.94L686.116 233.262V218.977L518.511 216.082Z" fill="#CCCCCC"/>
<path d="M686.117 218.977V233.263L780.983 157.554L782.283 140.723L686.117 218.977Z" fill="#999999"/>
<path d="M202.649 274.525C199.92 290.727 198.01 313.288 200.469 329.529C205.179 328.751 210.728 324.758 215.497 324.937C213.408 308.336 209.938 288.78 214.927 272.808C216.517 267.706 218.817 262.705 218.977 257.364C221.636 278.518 228.455 299.152 238.934 317.73C239.214 318.229 239.524 318.748 240.044 318.998C240.703 319.317 242.413 322.092 243.103 321.873C245.363 321.134 246.683 317.4 248.952 316.672C243.853 300.55 238.764 284.417 233.664 268.295C231.675 262.006 229.665 255.517 230.205 248.939C225.056 248.26 212.058 245.245 207.778 249.398C203.499 253.551 203.659 268.575 202.659 274.525H202.649Z" fill="#808080"/>
<path d="M233.334 189.52C234.574 190.009 235.284 191.277 235.884 192.465C238.793 198.215 241.453 204.095 243.822 210.084C247.532 205.173 251.431 200.401 255.511 195.779C255.871 195.37 256.261 194.941 256.771 194.751C257.55 194.462 258.4 194.781 259.17 195.09C260.86 195.769 262.54 196.458 264.229 197.137C256.87 204.644 251.161 213.758 247.622 223.651C243.632 222.253 239.833 220.297 236.384 217.851C236.584 228.233 233.904 245.913 233.394 256.285C223.425 257.093 213.307 256.165 203.648 253.569C205.878 254.168 209.628 222.912 209.608 220.866C209.518 212.311 208.238 202.617 210.487 194.262C212.437 194.831 217.396 190.149 217.396 190.149C217.396 190.149 217.086 187.444 217.916 186.765C220.376 184.758 223.615 186.585 226.735 186.865C226.305 190.618 231.454 188.751 233.334 189.49V189.52Z" fill="#B63E69"/>
<path d="M212.719 174.695C211.089 175.643 208.919 175.753 207.35 174.715C205.78 173.676 205.04 171.42 205.94 169.763C206.84 168.106 209.399 167.567 210.739 168.895C209.829 166.669 210.679 164.043 212.229 162.206C213.779 160.369 215.928 159.162 218.028 157.994C218.708 157.614 219.408 157.225 220.188 157.115C221.508 156.925 222.797 157.584 223.927 158.293C228.037 160.899 231.656 165.381 230.846 170.172C230.906 169.074 230.956 167.986 231.016 166.888C232.066 167.517 233.146 168.186 233.846 169.194C234.546 170.202 234.766 171.65 234.036 172.628C233.696 173.077 233.206 173.387 232.816 173.796C230.856 175.833 231.876 179.746 229.616 181.433C227.007 183.38 224.277 183.39 226.057 187.622C224.777 187.822 218.388 188.181 218.388 188.181C218.388 188.181 221.218 183.33 218.498 183.859C215.038 184.538 211.019 176.901 212.729 174.705L212.719 174.695Z" fill="#F0F0F0"/>
<path d="M278.988 196.149C276.928 195.9 274.859 195.66 272.799 195.41C272.799 195.001 272.519 194.831 272.399 194.462C274.809 194.752 279.078 193.534 281.508 193.464C282.318 193.444 283.028 192.865 283.058 192.016C283.088 191.248 282.418 190.449 281.608 190.469C278.478 190.559 274.379 191.417 271.259 191.098C274.649 190.09 278.038 189.081 281.428 188.073C283.277 187.524 282.468 184.639 280.608 185.188C276.708 186.346 272.809 187.514 268.9 188.662C269.3 188.413 269.69 188.153 270.099 187.913C272.609 186.446 275.209 185.118 277.888 183.98C278.628 183.661 279.158 182.982 278.918 182.133C278.718 181.435 277.818 180.786 277.068 181.105C274.079 182.383 271.169 183.82 268.37 185.458C267.01 186.256 265.67 187.095 264.37 187.983C264 188.233 263.64 188.492 263.29 188.762C264.43 185.797 265.9 182.972 267.68 180.307C268.13 179.638 267.79 178.639 267.13 178.26C266.39 177.831 265.53 178.14 265.08 178.809C262.061 183.321 259.891 188.373 258.661 193.653C258.471 194.462 258.911 195.061 259.501 195.331C259.061 196.099 258.761 196.948 258.621 197.826C258.491 198.685 258.621 199.763 259.491 200.202C260.041 200.482 260.701 200.392 261.291 200.282C264.44 199.733 267.6 199.194 270.749 198.645C271.059 198.595 271.389 198.535 271.649 198.375C271.699 198.345 271.739 198.295 271.789 198.256C274.209 198.545 276.628 198.825 279.048 199.114C279.388 199.154 279.858 198.904 280.088 198.675C280.348 198.415 280.548 197.976 280.518 197.597C280.458 196.698 279.828 196.219 278.988 196.129V196.149Z" fill="#F0F0F0"/>
<path d="M205.26 198.035C200.211 202.906 195.161 207.768 190.122 212.64C188.592 214.117 185.623 215.834 184.833 217.811C183.853 220.276 185.663 223.91 186.653 226.096C188.382 229.91 202.2 230.339 206.39 230.279C209.279 230.239 213.309 229.091 215.298 226.995C215.788 226.476 216.298 225.927 216.448 225.228C216.848 223.381 214.718 222.143 213.219 220.995C208.859 217.691 197.601 217.741 197.601 217.741C197.601 217.741 210.159 206.71 215.538 207.628C215.548 204.703 217.038 196.597 214.908 194.401C212.099 191.496 207.2 196.168 205.27 198.025L205.26 198.035Z" fill="#B63E69"/>
<path d="M222.466 164.146C222.616 163.926 222.676 163.646 222.646 163.377C223.956 163.547 224.886 164.675 225.916 165.503C227.046 166.412 228.465 166.991 229.925 166.981C231.385 166.971 232.845 166.342 233.725 165.184C233.835 165.044 233.935 164.874 233.925 164.695C233.915 164.545 233.815 164.425 233.725 164.305C232.355 162.578 230.985 160.851 229.615 159.114C228.975 158.306 228.315 157.477 227.436 156.918C225.086 155.421 218.567 154.243 216.677 157.078C214.488 160.372 221.936 164.954 222.476 164.136L222.466 164.146Z" fill="#435770"/>
<path d="M211.758 167.188C211.828 167.288 211.918 167.398 212.028 167.438C212.148 167.488 212.288 167.458 212.408 167.438C215.587 166.779 223.216 161.199 218.017 157.994C213.288 155.069 209.308 163.754 211.748 167.198L211.758 167.188Z" fill="#435770"/>
<path d="M243.913 221.329H214.867L225.786 203.23H254.831L243.913 221.329Z" fill="#999999"/>
<path d="M214.309 221.398H243.355L232.846 226.13H203.801L214.309 221.398Z" fill="#999999"/>
<path d="M226.466 221.695H221.447C221.477 221.586 221.497 221.466 221.487 221.346C221.477 220.707 221.457 220.068 221.447 219.429C221.427 218.371 220.507 217.842 219.547 217.982C217.297 218.321 215.088 218.801 212.898 219.389C215.258 217.732 217.647 216.115 220.077 214.538C221.687 213.49 220.187 210.904 218.567 211.952C215.108 214.188 211.718 216.524 208.389 218.95C208.799 217.762 209.109 216.544 209.298 215.307C209.368 214.897 209.368 214.528 209.149 214.149C208.969 213.839 208.609 213.54 208.249 213.46C207.529 213.3 206.539 213.679 206.399 214.508C206.219 215.646 205.949 216.774 205.589 217.862C205.499 218.132 205.409 218.401 205.309 218.661C205.259 218.791 205.209 218.93 205.159 219.06C205.159 219.08 205.079 219.25 205.049 219.33C205.019 219.409 204.939 219.569 204.929 219.589C204.869 219.719 204.809 219.849 204.749 219.978C204.619 220.248 204.479 220.528 204.339 220.797C204.119 221.216 204.119 221.715 204.289 222.145C203.999 222.594 203.919 223.143 204.229 223.672C204.299 223.792 204.399 223.902 204.519 224.001C204.519 224.79 204.589 225.599 204.779 226.327C205.079 227.495 205.799 228.484 206.819 229.133C207.699 229.692 208.759 229.901 209.788 229.981C210.738 230.051 211.678 229.961 212.618 229.831C213.348 229.732 214.058 229.592 214.598 229.023C215.118 228.484 215.308 227.725 215.288 226.986C217.257 227.545 219.207 228.184 221.117 228.923C221.877 229.212 222.766 228.604 222.966 227.875C223.196 227.026 222.676 226.327 221.917 226.028C220.617 225.529 219.307 225.08 217.987 224.66H226.456C228.386 224.66 228.386 221.666 226.456 221.666L226.466 221.695ZM208.269 226.517C208.269 226.517 208.259 226.507 208.229 226.477C208.229 226.477 208.229 226.477 208.219 226.467C208.249 226.487 208.269 226.507 208.279 226.527L208.269 226.517ZM210.628 226.088C210.628 226.088 210.618 226.058 210.598 226.038C210.598 226.038 210.608 226.038 210.618 226.048C210.618 226.058 210.628 226.078 210.628 226.088V226.088ZM208.159 226.317C208.159 226.317 208.159 226.327 208.169 226.337C208.159 226.327 208.149 226.317 208.149 226.308C208.149 226.308 208.149 226.308 208.159 226.317V226.317ZM210.598 226.028C210.598 226.028 210.568 225.998 210.558 225.988C210.558 225.988 210.558 225.988 210.558 225.978C210.558 225.978 210.558 225.968 210.558 225.958C210.578 225.978 210.608 226.008 210.618 226.048C210.618 226.048 210.618 226.048 210.608 226.038L210.598 226.028ZM218.487 221.356C218.487 221.476 218.507 221.596 218.537 221.705H216.087C216.877 221.526 217.677 221.366 218.477 221.216C218.477 221.266 218.477 221.306 218.477 221.356H218.487ZM212.298 227.226C212.298 227.276 212.298 227.316 212.298 227.316C212.278 227.316 212.298 227.276 212.298 227.236V227.226Z" fill="#F0F0F0"/>
<path d="M206.492 332.095C210.831 331.257 215.171 330.418 219.51 329.58C220.64 329.36 221.8 329.13 222.78 328.542C223.76 327.953 224.549 326.894 224.509 325.746C224.459 324.479 223.4 323.43 222.21 323.001C221.02 322.572 219.7 322.662 218.44 322.811C213.771 323.351 207.882 324.429 203.823 326.954C199.763 329.48 202.013 332.964 206.502 332.095H206.492Z" fill="#435770"/>
<path d="M260.582 311.523C260.832 311.493 261.112 311.473 261.332 311.593C261.682 311.782 261.772 312.232 261.822 312.631C262.002 314.029 262.132 315.606 261.232 316.684C260.942 317.033 260.552 317.303 260.182 317.562C255.742 320.587 251.063 323.263 246.194 325.539C244.204 326.467 241.255 326.826 240.665 324.031C240.125 321.476 243.174 319.848 244.914 318.611C249.593 315.276 254.783 312.242 260.592 311.533L260.582 311.523Z" fill="#435770"/>
<path d="M328.261 21.2188H283.778C276.494 21.2188 270.59 27.1139 270.59 34.386V47.5432C270.59 54.8153 276.494 60.7104 283.778 60.7104H328.261C335.545 60.7104 341.449 54.8153 341.449 47.5432V34.386C341.449 27.1139 335.545 21.2188 328.261 21.2188Z" fill="#876C8E"/>
<path d="M281.119 54.0312V70.2432L301.606 55.9679" fill="#876C8E"/>
<path d="M286.918 45.4389C289.419 45.4389 291.447 43.4142 291.447 40.9167C291.447 38.4192 289.419 36.3945 286.918 36.3945C284.417 36.3945 282.389 38.4192 282.389 40.9167C282.389 43.4142 284.417 45.4389 286.918 45.4389Z" fill="#C6C6C6"/>
<path d="M306.025 45.4389C308.527 45.4389 310.555 43.4142 310.555 40.9167C310.555 38.4192 308.527 36.3945 306.025 36.3945C303.524 36.3945 301.496 38.4192 301.496 40.9167C301.496 43.4142 303.524 45.4389 306.025 45.4389Z" fill="#C6C6C6"/>
<path d="M325.123 45.4389C327.625 45.4389 329.652 43.4142 329.652 40.9167C329.652 38.4192 327.625 36.3945 325.123 36.3945C322.622 36.3945 320.594 38.4192 320.594 40.9167C320.594 43.4142 322.622 45.4389 325.123 45.4389Z" fill="#C6C6C6"/>
<path d="M765.246 266.926H720.762C713.479 266.926 707.574 272.821 707.574 280.093V293.25C707.574 300.522 713.479 306.417 720.762 306.417H765.246C772.529 306.417 778.434 300.522 778.434 293.25V280.093C778.434 272.821 772.529 266.926 765.246 266.926Z" fill="#876C8E"/>
<path d="M718.104 299.738V315.95L738.59 301.675" fill="#876C8E"/>
<path d="M723.902 291.146C726.404 291.146 728.432 289.121 728.432 286.624C728.432 284.126 726.404 282.102 723.902 282.102C721.401 282.102 719.373 284.126 719.373 286.624C719.373 289.121 721.401 291.146 723.902 291.146Z" fill="#C6C6C6"/>
<path d="M743 291.146C745.501 291.146 747.529 289.121 747.529 286.624C747.529 284.126 745.501 282.102 743 282.102C740.499 282.102 738.471 284.126 738.471 286.624C738.471 289.121 740.499 291.146 743 291.146Z" fill="#C6C6C6"/>
<path d="M762.107 291.146C764.609 291.146 766.637 289.121 766.637 286.624C766.637 284.126 764.609 282.102 762.107 282.102C759.606 282.102 757.578 284.126 757.578 286.624C757.578 289.121 759.606 291.146 762.107 291.146Z" fill="#C6C6C6"/>
<path d="M265.57 81.9453H221.086C213.803 81.9453 207.898 87.8405 207.898 95.1125V108.27C207.898 115.542 213.803 121.437 221.086 121.437H265.57C272.853 121.437 278.758 115.542 278.758 108.27V95.1125C278.758 87.8405 272.853 81.9453 265.57 81.9453Z" fill="#876C8E"/>
<path d="M218.428 114.758V130.97L238.915 116.694" fill="#876C8E"/>
<path d="M224.227 106.165C226.728 106.165 228.756 104.141 228.756 101.643C228.756 99.1457 226.728 97.1211 224.227 97.1211C221.725 97.1211 219.697 99.1457 219.697 101.643C219.697 104.141 221.725 106.165 224.227 106.165Z" fill="#C6C6C6"/>
<path d="M243.326 106.165C245.828 106.165 247.856 104.141 247.856 101.643C247.856 99.1457 245.828 97.1211 243.326 97.1211C240.825 97.1211 238.797 99.1457 238.797 101.643C238.797 104.141 240.825 106.165 243.326 106.165Z" fill="#C6C6C6"/>
<path d="M262.432 106.165C264.933 106.165 266.961 104.141 266.961 101.643C266.961 99.1457 264.933 97.1211 262.432 97.1211C259.93 97.1211 257.902 99.1457 257.902 101.643C257.902 104.141 259.93 106.165 262.432 106.165Z" fill="#C6C6C6"/>
<path d="M589.463 423.377L577.355 418.086L576.645 425.034C575.595 425.333 574.546 425.643 573.506 425.992C573.176 426.102 572.846 426.212 572.556 426.412C571.676 427.01 571.436 428.178 571.276 429.237C571.226 429.536 571.196 429.876 571.416 430.095C571.556 430.235 571.756 430.275 571.946 430.305C576.325 431.014 580.735 429.886 584.844 428.448C586.374 427.909 588.933 427.37 589.083 425.393C589.123 424.864 589.013 424.445 588.813 424.116L589.473 423.387L589.463 423.377Z" fill="#435770"/>
<path d="M638.955 423.13V423.05L634.756 417.699L630.167 424.767L631.706 431.955C631.407 432.444 631.117 432.923 630.817 433.412C630.357 434.171 629.887 434.939 629.777 435.898C629.667 436.856 629.987 438.044 630.827 438.873C631.756 439.781 633.086 440.001 634.036 439.681C634.986 439.362 635.646 438.613 636.226 437.834C638.386 434.979 640.825 431.086 641.225 427.083C641.455 424.757 640.305 423.329 638.945 423.12L638.955 423.13Z" fill="#435770"/>
<path d="M655.424 365.071C648.026 357.614 648.406 356.796 645.166 360.529C641.437 360.749 636.977 362.166 634.348 362.566C623.739 364.173 613.121 365.78 602.512 367.387C601.383 367.557 600.213 367.747 599.263 368.376C598.183 369.094 597.543 370.292 596.933 371.44L583.175 397.655C579.716 404.254 576.236 410.892 574.057 418.01C579.086 420.086 584.225 421.883 589.454 423.38C596.653 411.641 601.413 398.414 603.342 384.777C603.462 383.899 603.602 382.96 604.192 382.292C604.812 381.583 605.792 381.333 606.712 381.134C612.911 379.756 619.21 378.798 625.529 378.229C618.32 382.581 609.451 388.191 609.891 389.1C615.93 401.369 621.959 413.627 627.999 425.896C630.838 427.334 634.558 425.746 636.187 423.011C637.817 420.276 637.677 416.792 636.667 413.767C635.657 410.742 633.868 408.067 632.248 405.322C629.458 400.61 627.139 395.619 625.329 390.457C634.578 385.576 635.057 382.012 645.256 379.686C645.826 379.556 646.416 379.427 646.986 379.267C652.345 380.305 659.174 377.38 660.114 372.558C663.323 364.652 663.993 360.659 655.434 365.071H655.424Z" fill="#808080"/>
<path d="M582.945 319.348C585.005 319.099 587.075 318.859 589.134 318.61C589.134 318.2 589.414 318.031 589.534 317.661C587.125 317.951 582.855 316.733 580.426 316.663C579.616 316.643 578.906 316.064 578.876 315.216C578.846 314.447 579.516 313.648 580.326 313.668C583.455 313.758 587.555 314.617 590.674 314.297C587.285 313.289 583.895 312.281 580.506 311.272C578.656 310.723 579.466 307.838 581.326 308.387C585.225 309.545 589.124 310.713 593.034 311.861C592.634 311.612 592.244 311.352 591.834 311.113C589.324 309.645 586.725 308.317 584.045 307.179C583.305 306.86 582.775 306.181 583.015 305.333C583.215 304.634 584.115 303.985 584.865 304.304C587.855 305.582 590.764 307.02 593.564 308.657C594.924 309.455 596.263 310.294 597.563 311.182C597.933 311.432 598.293 311.692 598.643 311.961C597.503 308.996 596.033 306.171 594.254 303.506C593.804 302.837 594.144 301.839 594.804 301.459C595.543 301.03 596.403 301.34 596.853 302.008C599.873 306.521 602.042 311.572 603.272 316.853C603.462 317.661 603.022 318.26 602.432 318.53C602.872 319.298 603.172 320.147 603.312 321.025C603.442 321.884 603.312 322.962 602.442 323.401C601.893 323.681 601.233 323.591 600.643 323.481C597.493 322.932 594.334 322.393 591.184 321.844C590.874 321.794 590.544 321.734 590.284 321.575C590.234 321.545 590.194 321.495 590.144 321.455C587.725 321.744 585.305 322.024 582.885 322.313C582.545 322.353 582.075 322.104 581.845 321.874C581.586 321.614 581.386 321.175 581.416 320.796C581.476 319.897 582.105 319.418 582.945 319.328V319.348Z" fill="#F0F0F0"/>
<path d="M714.984 386.362C712.974 385.833 710.965 385.294 708.955 384.765C708.815 385.144 708.485 385.204 708.235 385.504C710.585 386.123 714.104 388.818 716.334 389.786C717.074 390.106 717.524 390.904 717.234 391.703C716.974 392.432 716.064 392.931 715.314 392.601C712.434 391.364 708.945 389.058 705.925 388.209C708.705 390.395 711.484 392.581 714.264 394.768C715.774 395.956 713.964 398.341 712.434 397.144C709.235 394.628 706.035 392.112 702.836 389.607C703.116 389.986 703.386 390.375 703.676 390.745C705.475 393.031 707.395 395.217 709.465 397.273C710.035 397.842 710.285 398.671 709.745 399.37C709.305 399.949 708.215 400.218 707.645 399.649C705.345 397.363 703.166 394.957 701.166 392.402C700.196 391.154 699.266 389.886 698.376 388.578C698.126 388.209 697.886 387.84 697.657 387.46C697.627 390.635 697.936 393.799 698.616 396.934C698.786 397.723 698.106 398.521 697.347 398.631C696.497 398.751 695.817 398.152 695.647 397.363C694.507 392.062 694.347 386.562 695.157 381.201C695.277 380.383 695.907 379.983 696.557 379.953C696.437 379.075 696.467 378.176 696.667 377.308C696.867 376.459 697.387 375.501 698.356 375.421C698.976 375.361 699.546 375.691 700.066 376.01C702.796 377.677 705.525 379.344 708.255 381.011C708.525 381.181 708.805 381.351 708.985 381.59C709.025 381.64 709.045 381.7 709.075 381.75C711.424 382.369 713.784 382.998 716.134 383.617C716.474 383.707 716.804 384.106 716.934 384.416C717.084 384.755 717.104 385.234 716.934 385.584C716.554 386.402 715.784 386.602 714.974 386.392L714.984 386.362Z" fill="#F0F0F0"/>
<path d="M674.282 279.678C675.302 279.678 676.382 279.688 677.272 280.177C678.062 280.606 678.602 281.365 679.122 282.084C679.972 283.272 680.821 284.47 681.341 285.827C683.031 290.2 680.951 295.031 678.802 299.194C677.152 302.389 674.932 305.902 671.333 306.442C669.013 306.791 666.644 305.733 664.984 304.106C663.324 302.478 662.274 300.352 661.444 298.206C659.455 293.055 659.275 287.554 662.314 282.723C664.874 278.65 670.033 279.668 674.272 279.668L674.282 279.678Z" fill="#435770"/>
<path d="M659.623 305.955C660.083 306.204 660.603 306.444 660.783 306.923C660.893 307.223 660.853 307.542 660.783 307.851C660.473 309.439 659.753 311.006 658.483 312.004C657.213 313.003 655.323 313.302 653.944 312.463C653.584 314.68 655.883 316.506 658.103 316.836C660.323 317.165 662.572 316.536 664.822 316.616C666.502 316.676 668.202 317.125 669.851 316.786C671.501 316.447 673.101 314.879 672.641 313.262C672.201 311.735 670.371 311.206 668.911 310.577C667.452 309.948 665.972 308.241 666.902 306.953C667.522 306.084 668.791 306.104 669.791 305.725C672.101 304.837 673.631 302.201 673.931 299.745C675.64 299.945 676.44 298.098 676.36 296.381C676.28 294.664 675.351 293.526 673.661 293.876C674.101 292.209 673.611 290.032 672.671 288.585C671.941 287.457 670.581 286.928 669.291 286.518C665.962 285.47 662.382 284.652 658.893 284.492C655.184 284.322 654.314 286.049 654.484 289.583C654.744 294.904 654.074 302.95 659.613 305.945L659.623 305.955Z" fill="#F0F0F0"/>
<path d="M658.355 279.907C656.726 280.855 655.356 282.173 653.996 283.471C652.886 284.529 651.786 285.587 650.676 286.645C651.656 286.436 652.636 286.216 653.616 286.006C651.916 287.464 650.107 288.812 648.217 290.02C650.157 290.329 652.136 290.439 654.106 290.349C653.436 291.297 652.716 292.216 651.946 293.084C654.816 292.665 657.615 291.747 660.175 290.389C661.565 289.65 662.925 288.742 663.734 287.404C664.844 285.577 665.104 282.013 664.024 280.087C662.765 277.841 660.255 278.799 658.355 279.907Z" fill="#435770"/>
<path d="M661.822 282.673C661.652 284.19 662.522 285.648 663.362 287.045C664.132 288.303 664.972 289.631 666.542 290.39C666.912 289.491 667.281 288.603 667.641 287.704C667.691 287.584 667.751 287.455 667.901 287.385C668.181 287.275 668.491 287.475 668.681 287.654C669.531 288.483 670.291 289.401 671.451 290C673.401 291.009 676.02 290.889 678.4 290.719C678.71 290.699 679.05 290.669 679.3 290.529C679.57 290.38 679.67 290.12 679.77 289.88C680.349 288.413 680.929 286.866 680.439 285.388C680.149 284.54 679.53 283.771 678.85 283.042C677.3 281.365 675.43 279.818 673.101 278.73C671.031 277.761 666.932 276.544 664.482 277.472C662.832 278.091 661.972 281.335 661.822 282.673V282.673Z" fill="#435770"/>
<path d="M703.196 377.777C695.247 363.892 688.658 349.227 683.549 334.063C682.599 331.258 679.96 317.532 677.26 315.725C676.42 314.287 673.211 313.01 672.271 312.54C668.971 313.938 668.151 316.434 664.472 316.763C662.142 317.083 659.093 314.607 658.683 312.301L651.744 313.129C649.264 313.189 645.885 315.735 643.715 316.933C642.145 317.801 640.586 318.67 639.036 319.578C633.907 322.623 629.077 326.157 624.638 330.14L624.518 329.97C617.489 325.917 610.62 321.565 603.951 316.943C602.801 318.959 601.511 320.896 600.102 322.743C602.611 325.039 606.091 326.147 608.39 328.662C608.94 329.261 609.41 329.92 610 330.469C610.64 331.058 611.39 331.498 612.13 331.947C618.289 335.73 623.568 341.061 630.337 343.607C630.537 343.686 630.757 343.756 630.967 343.726C631.187 343.686 631.377 343.547 631.547 343.407C635.206 340.462 644.165 330.509 647.834 327.564C643.875 335.79 638.326 352.391 633.427 360.158C632.797 361.156 633.127 362.474 634.166 363.023L643.235 367.815C655.073 374.813 662.732 370.79 662.732 370.79C662.472 366.068 671.311 341.54 673.191 330.11C678.54 342.069 686.839 367.096 692.188 379.055C692.478 379.714 692.828 380.423 693.498 380.692C694.137 380.952 694.847 380.722 695.497 380.493C698.067 379.584 700.637 378.676 703.206 377.768L703.196 377.777Z" fill="#B63E69"/>
<path d="M577.691 145.604C577.101 145.604 576.451 145.634 576.041 146.054C575.671 146.433 575.621 147.022 575.601 147.551C575.561 148.619 575.511 149.697 575.471 150.766C575.461 151.055 575.451 151.365 575.631 151.594C575.801 151.804 576.081 151.884 576.351 151.944C581.181 153.062 586.19 153.341 591.109 152.772C591.579 152.722 592.069 152.642 592.459 152.373C592.829 152.103 593.059 151.674 593.229 151.255C594.759 147.591 594.079 145.375 590.159 145.435C586.01 145.495 581.85 145.604 577.691 145.604V145.604Z" fill="#333333"/>
<path d="M630.835 173.69C630.835 174.129 630.835 174.608 631.095 174.968C631.425 175.427 632.035 175.567 632.595 175.667C633.734 175.866 635.034 176.026 635.924 175.287C636.354 174.928 636.614 174.409 636.844 173.9C638.364 170.545 639.184 166.882 639.234 163.198C639.294 159.435 634.674 156.56 631.725 159.734C629.285 162.36 630.835 170.336 630.835 173.69Z" fill="#333333"/>
<path d="M610.288 116.15C609.229 117.388 608.069 118.526 607.099 119.834C605.989 121.331 605.139 122.998 604.239 124.635C600.31 131.713 595.141 138.002 590.401 144.561C590.091 144.98 589.772 145.459 589.832 145.979C589.882 146.428 590.201 146.797 590.511 147.137C591.431 148.145 592.361 149.163 593.281 150.171C608.299 135.696 622.267 120.133 635.025 103.632C635.605 106.138 635.375 108.753 635.145 111.319C634.175 122.15 633.195 132.981 632.225 143.812C631.695 149.712 631.165 155.622 631.265 161.542L637.404 161.971C637.654 161.991 637.924 162.001 638.114 161.851C638.324 161.691 638.374 161.402 638.404 161.132C639.684 150.561 640.324 139.849 643.034 129.557C644.033 125.764 645.313 122.05 646.403 118.286C649.163 108.763 650.722 98.89 651.042 88.9772C646.583 88.8474 642.114 88.8374 637.654 88.9373C634.305 89.0071 630.245 88.538 626.956 89.2168C624.056 89.8158 622.687 93.3496 621.437 95.7155C619.707 98.9999 618.267 102.424 616.658 105.768C614.898 109.442 612.938 113.056 610.268 116.16L610.288 116.15Z" fill="#808080"/>
<path d="M696.172 33.4201C694.462 33.6497 692.752 33.8793 691.043 34.1089C690.963 33.7795 690.703 33.6997 690.523 33.4301C692.522 33.1606 695.702 31.3038 697.642 30.7448C698.291 30.5551 698.741 29.9461 698.581 29.2573C698.441 28.6284 697.742 28.1293 697.092 28.319C694.592 29.0377 691.483 30.5751 688.903 30.9644C691.423 29.457 693.932 27.9396 696.452 26.4322C697.822 25.6037 696.572 23.4574 695.192 24.2859C692.292 26.0229 689.403 27.7699 686.503 29.4969C686.773 29.2174 687.033 28.9179 687.313 28.6484C689.033 26.9513 690.843 25.3441 692.762 23.8767C693.292 23.4674 693.582 22.8085 693.212 22.1796C692.902 21.6605 692.042 21.3211 691.512 21.7304C689.373 23.3775 687.333 25.1245 685.423 27.0312C684.494 27.9596 683.594 28.9079 682.734 29.8863C682.494 30.1658 682.254 30.4453 682.024 30.7348C682.324 28.1193 682.914 25.5438 683.794 23.0381C684.014 22.4092 683.544 21.6805 682.924 21.5107C682.234 21.3211 681.614 21.7403 681.394 22.3792C679.904 26.6319 679.204 31.1341 679.304 35.6363C679.324 36.3251 679.794 36.7144 680.324 36.8143C680.134 37.523 680.064 38.2618 680.134 39.0005C680.204 39.7192 680.544 40.5578 681.324 40.7375C681.824 40.8473 682.334 40.6376 682.794 40.428C685.213 39.3399 687.633 38.2518 690.053 37.1537C690.293 37.0439 690.543 36.9341 690.713 36.7544C690.753 36.7144 690.773 36.6745 690.803 36.6346C692.802 36.365 694.812 36.0955 696.812 35.826C697.102 35.786 697.422 35.4866 697.552 35.257C697.712 34.9874 697.772 34.5981 697.682 34.2986C697.452 33.5898 696.842 33.3403 696.152 33.4301L696.172 33.4201Z" fill="#F0F0F0"/>
<path d="M573.883 76.3244C575.253 75.2762 576.623 74.238 577.992 73.1898C577.812 72.9003 577.942 72.6608 577.882 72.3413C576.283 73.5592 572.713 74.4976 570.943 75.4659C570.353 75.7854 569.604 75.6755 569.224 75.0866C568.884 74.5475 569.014 73.699 569.604 73.3695C571.883 72.1117 575.173 71.0036 577.272 69.4663C574.423 70.1751 571.573 70.8838 568.724 71.5926C567.174 71.9819 566.534 69.5761 568.094 69.1868C571.373 68.3782 574.653 67.5596 577.932 66.741C577.542 66.741 577.152 66.7111 576.752 66.7111C574.343 66.721 571.913 66.8708 569.524 67.1802C568.854 67.2701 568.194 67.0006 568.004 66.2918C567.854 65.7028 568.224 64.8643 568.894 64.7744C571.563 64.425 574.253 64.2254 576.952 64.2254C578.262 64.2254 579.572 64.2653 580.882 64.3451C581.252 64.3651 581.622 64.3951 581.982 64.445C579.912 62.8078 577.672 61.4002 575.273 60.2522C574.663 59.9627 574.493 59.1142 574.803 58.5552C575.153 57.9362 575.893 57.7965 576.503 58.086C580.562 60.0426 584.251 62.7279 587.361 65.9823C587.841 66.4815 587.781 67.0904 587.471 67.5396C588.111 67.909 588.681 68.3782 589.151 68.9572C589.611 69.5162 589.97 70.3448 589.531 71.0236C589.251 71.4529 588.741 71.6625 588.281 71.8422C585.801 72.7806 583.311 73.7189 580.832 74.6573C580.582 74.7472 580.332 74.847 580.082 74.837C580.032 74.837 579.982 74.817 579.932 74.817C578.322 76.0449 576.712 77.2628 575.113 78.4907C574.883 78.6604 574.443 78.6803 574.183 78.6105C573.883 78.5306 573.563 78.301 573.413 78.0215C573.073 77.3526 573.323 76.7537 573.883 76.3244V76.3244Z" fill="#F0F0F0"/>
<path d="M636.712 14.7328C634.933 14.0839 632.863 14.603 631.493 16.0505C630.123 17.498 629.544 19.794 630.013 21.8305C630.183 22.5792 630.493 23.3079 630.493 24.0766C630.493 26.4525 627.904 27.5107 626.414 29.1878C624.414 31.4339 624.524 35.5867 626.634 37.693C627.174 38.2321 627.824 38.6514 628.274 39.2903C628.714 39.9092 628.924 40.6779 629.214 41.3966C630.733 45.1901 634.563 47.6159 638.232 47.1167C642.992 50.2114 648.501 51.8485 654 51.8086C654.8 51.8086 655.65 51.7387 656.27 51.1897C656.699 50.8103 656.969 50.2413 657.199 49.6823C658.249 47.1866 658.959 44.5112 659.299 41.776C659.409 40.8975 659.489 39.9891 659.799 39.1705C660.159 38.2221 660.809 37.4634 661.399 36.6848C663.628 33.7898 665.328 29.3575 663.288 26.2928C661.679 23.867 658.589 23.6074 656.17 22.2597C653.76 20.9121 652.01 18.4463 649.75 16.8092C645.611 13.8144 636.712 14.7527 636.712 14.7527V14.7328Z" fill="#435770"/>
<path d="M655.81 47.4963L649.361 45.2103C648.791 44.3318 648.002 43.5432 647.792 42.5249C647.362 40.4585 649.461 38.8613 650.751 37.1842C652.761 34.5887 652.991 31.0648 652.881 27.7904C652.851 26.7622 652.771 25.6741 652.191 24.8156C651.711 24.1068 650.941 23.6576 650.191 23.2483C648.661 22.4197 647.082 21.681 645.462 21.0421C644.412 20.6228 643.232 20.2435 642.182 20.6628C640.903 21.1819 640.353 22.6593 639.953 23.967L639.623 23.1584C637.483 26.1732 637.703 30.1963 638.023 33.8699C638.183 35.7367 638.433 37.8031 639.863 39.031C640.633 39.6898 641.712 40.0792 642.122 41.0076C642.492 41.8361 642.162 42.8544 641.532 43.5132C640.903 44.1721 640.053 44.5714 639.213 44.9108L632.454 45.3301L631.334 49.0037L632.294 53.6357C632.294 53.6357 641.403 59.3758 642.042 59.2161C642.682 59.0563 657.38 53.6357 657.38 53.6357L655.83 47.4664L655.81 47.4963Z" fill="#F0F0F0"/>
<path d="M640.535 12.5169C638.885 12.1076 637.136 13.1657 636.286 14.6232C635.436 16.0807 635.296 17.8576 635.326 19.5547C635.356 20.6927 635.486 21.9206 636.256 22.7591C636.666 23.2084 637.216 23.4979 637.746 23.7774C640.605 25.2748 643.475 26.7722 646.334 28.2596C647.534 28.8885 648.914 29.5274 650.194 29.0982C650.904 28.8586 651.474 28.3195 652.073 27.8803C652.673 27.441 653.423 27.0717 654.153 27.2414C654.883 27.4111 655.423 28.3694 654.943 28.9484C656.353 29.3877 657.923 29.5075 659.272 28.8985C660.622 28.2896 661.622 26.8221 661.372 25.3646C662.562 25.6242 663.762 24.576 663.942 23.3781C664.122 22.1801 663.492 20.9722 662.602 20.1536C661.712 19.3351 660.572 18.8259 659.462 18.3368C657.843 17.628 656.233 16.9093 654.613 16.2005C655.173 15.1323 654.923 13.7847 654.283 12.7664C653.643 11.7482 652.673 10.9795 651.723 10.2408C650.794 9.51206 649.774 8.75338 648.594 8.72343C645.984 8.66353 644.355 12.1076 641.745 12.1475L640.505 12.5069L640.535 12.5169Z" fill="#435770"/>
<path d="M640.754 49.6303C642.714 50.409 644.863 50.5587 646.963 50.6985C648.213 50.7883 649.493 50.8682 650.703 50.5288C652.272 50.0995 653.562 49.0114 654.852 48.0131C655.142 47.7835 655.452 47.5539 655.822 47.494C656.752 47.3243 657.492 48.2228 658.071 48.9815C659.491 50.8283 661.321 52.3556 663.381 53.4437C664.081 53.8131 665.89 54.9411 666.69 54.6317C667.53 54.3022 668.61 51.7467 669.11 50.978C672.559 45.6572 676.009 40.3364 679.468 35.0156C680.878 36.7127 682.578 38.1502 684.488 39.2483C679.798 45.178 678.258 52.9246 675.019 59.7528C674.309 61.2402 673.439 62.7776 671.979 63.5363C670.98 64.0654 669.81 64.1652 668.67 64.1951C665.02 64.295 661.361 63.7559 657.892 62.6179C656.942 65.7824 656.002 68.9569 655.462 72.2113C655.052 74.697 654.872 77.2126 654.512 79.6983C653.912 83.8511 652.782 87.9241 651.173 91.7974C641.784 95.4311 633.705 95.6008 624.287 90.1103C625.266 80.3871 630.806 69.0767 629.836 59.3435C623.037 63.097 624.107 67.3397 616.708 69.6956C609.309 72.0515 593.391 74.5971 585.822 72.8502C586.652 70.2247 587.202 67.4994 587.472 64.7641C595.391 63.8357 603.32 62.8974 611.239 61.969C611.928 61.8891 612.638 61.7993 613.248 61.4698C614.008 61.0606 614.518 60.3418 615.028 59.643C617.937 55.63 621.197 51.8764 624.756 48.4424C626.286 46.9649 628.596 45.9267 630.546 45.0882C632.545 44.2197 636.135 45.208 636.135 45.208C636.135 45.208 638.364 48.682 640.784 49.6403L640.754 49.6303Z" fill="#B63E69"/>
<path d="M584.904 0H540.42C533.137 0 527.232 5.89516 527.232 13.1672V26.3244C527.232 33.5965 533.137 39.4917 540.42 39.4917H584.904C592.187 39.4917 598.092 33.5965 598.092 26.3244V13.1672C598.092 5.89516 592.187 0 584.904 0Z" fill="#876C8E"/>
<path d="M583.764 32.8125V49.0244L563.277 34.7392" fill="#876C8E"/>
<path d="M543.568 24.2201C546.07 24.2201 548.098 22.1955 548.098 19.698C548.098 17.2004 546.07 15.1758 543.568 15.1758C541.067 15.1758 539.039 17.2004 539.039 19.698C539.039 22.1955 541.067 24.2201 543.568 24.2201Z" fill="#C6C6C6"/>
<path d="M562.668 24.2201C565.169 24.2201 567.197 22.1955 567.197 19.698C567.197 17.2004 565.169 15.1758 562.668 15.1758C560.167 15.1758 558.139 17.2004 558.139 19.698C558.139 22.1955 560.167 24.2201 562.668 24.2201Z" fill="#C6C6C6"/>
<path d="M581.762 24.2201C584.263 24.2201 586.291 22.1955 586.291 19.698C586.291 17.2004 584.263 15.1758 581.762 15.1758C579.26 15.1758 577.232 17.2004 577.232 19.698C577.232 22.1955 579.26 24.2201 581.762 24.2201Z" fill="#C6C6C6"/>
</svg>
